<svg xmlns="http://www.w3.org/2000/svg" viewBox="-41 -41 82 82" role="img" aria-label="liken">
  <polygon points="-4.33,-9.27 2.77,-5.17 2.77,3.03 -4.33,7.13 -11.43,3.03 -11.43,-5.17" fill="#6e8352" stroke="#6e8352" stroke-width="1.40" stroke-linejoin="round"/>
  <polygon points="12.99,-9.27 20.09,-5.17 20.09,3.03 12.99,7.13 5.89,3.03 5.89,-5.17" fill="#4a5d3a" stroke="#4a5d3a" stroke-width="1.40" stroke-linejoin="round"/>
  <polygon points="4.33,-24.27 11.43,-20.17 11.43,-11.97 4.33,-7.87 -2.77,-11.97 -2.77,-20.17" fill="#93a877" stroke="#93a877" stroke-width="1.40" stroke-linejoin="round"/>
  <polygon points="-12.99,-24.27 -5.89,-20.17 -5.89,-11.97 -12.99,-7.87 -20.09,-11.97 -20.09,-20.17" fill="#93a877" stroke="#93a877" stroke-width="1.40" stroke-linejoin="round"/>
  <polygon points="-21.65,-9.27 -14.55,-5.17 -14.55,3.03 -21.65,7.13 -28.75,3.03 -28.75,-5.17" fill="#b4c49a" stroke="#b4c49a" stroke-width="1.40" stroke-linejoin="round"/>
  <polygon points="-12.99,5.73 -5.89,9.83 -5.89,18.03 -12.99,22.13 -20.09,18.03 -20.09,9.83" fill="#4a5d3a" stroke="#4a5d3a" stroke-width="1.40" stroke-linejoin="round"/>
  <polygon points="4.33,5.73 11.43,9.83 11.43,18.03 4.33,22.13 -2.77,18.03 -2.77,9.83" fill="#93a877" stroke="#93a877" stroke-width="1.40" stroke-linejoin="round"/>
  <polygon points="21.65,-23.04 27.69,-19.56 27.69,-12.59 21.65,-9.10 15.61,-12.59 15.61,-19.56" fill="#e0872f" stroke="#e0872f" stroke-width="1.19" stroke-linejoin="round"/>
  <polygon points="-4.33,-36.81 0.64,-33.94 0.64,-28.20 -4.33,-25.33 -9.30,-28.20 -9.30,-33.94" fill="#b4c49a" stroke="#b4c49a" stroke-width="0.98" stroke-linejoin="round"/>
  <polygon points="12.99,-35.58 16.90,-33.33 16.90,-28.82 12.99,-26.56 9.08,-28.82 9.08,-33.33" fill="#93a877" stroke="#93a877" stroke-width="0.77" stroke-linejoin="round"/>
  <polygon points="-30.31,7.37 -24.63,10.65 -24.63,17.21 -30.31,20.49 -35.99,17.21 -35.99,10.65" fill="#6e8352" stroke="#6e8352" stroke-width="1.12" stroke-linejoin="round"/>
  <polygon points="-4.33,23.60 0.29,26.26 0.29,31.59 -4.33,34.26 -8.95,31.59 -8.95,26.26" fill="#b4c49a" stroke="#b4c49a" stroke-width="0.91" stroke-linejoin="round"/>
  <polygon points="12.99,22.37 18.67,25.65 18.67,32.21 12.99,35.49 7.31,32.21 7.31,25.65" fill="#4a5d3a" stroke="#4a5d3a" stroke-width="1.12" stroke-linejoin="round"/>
  <polygon points="21.65,6.55 28.04,10.24 28.04,17.62 21.65,21.31 15.26,17.62 15.26,10.24" fill="#b4c49a" stroke="#b4c49a" stroke-width="1.26" stroke-linejoin="round"/>
</svg>
